{"title":"The Horse Whisperer-720p MP4 AAC x264 BRRip 1998-CC","uid":7854469,"size":3650956425,"categoryP":"video","categoryS":"hd___movies","magnet":"?xt=urn:btih:986adb27058dd0889a744850935cbfccb60cb3f3&amp;dn=The+Horse+Whisperer-720p+MP4+AAC+x264+BRRip+1998-CC&amp;tr=udp%3A%2F%2Ftracker.openbittorrent.com%3A80&amp;tr=udp%3A%2F%2Fopen.demonii.com%3A1337&amp;tr=udp%3A%2F%2Ftracker.coppersurfer.tk%3A6969&amp;tr=udp%3A%2F%2Fexodus.desync.com%3A6969","seeders":1,"leechers":0,"uploader":"Caveman44","files":-1,"time":1353704567,"description":" &lt;a href=&quot;http://www.imdb.com/title/tt0119314/&quot; rel=&quot;nofollow&quot; target=&quot;_NEW&quot;&gt;http://www.imdb.com/title/tt0119314/&lt;/a&gt;\n\nSource: The.Horse.Whisperer.1998.BluRay.720p.DTS.x264.CHD Thanks!\n\nSubs: Croatian, Danish, English, Greek and Romanian.\n\nSample and Screens included.\n\nGeneral\nComplete name                            : The Horse Whisperer-720p MP4 AAC x264 BRRip 1998-CC.mp4\nFormat                                   : MPEG-4\nFormat profile                           : Base Media\nCodec ID                                 : isom\nFile size                                : 3.36 GiB\nDuration                                 : 2h 49mn\nOverall bit rate mode                    : Variable\nOverall bit rate                         : 2 843 Kbps\nEncoded date                             : UTC 2012-10-23 17:08:20\n\nVideo\nID                                       : 1\nFormat                                   : AVC\nFormat/Info                              : Advanced Video Codec\nFormat profile                           : &lt;a class=&quot;__cf_email__&quot; href=&quot;/cdn-cgi/l/email-protection&quot; data-cfemail=&quot;5f173638371f136b716e&quot;&gt;[email&amp;#160;protected]&lt;/a&gt;&lt;script cf-hash='f9e31' type=&quot;text/javascript&quot;&gt;\n/* &lt;![CDATA[ */!function(){try{var t=&quot;currentScript&quot;in document?document.currentScript:function(){for(var t=document.getElementsByTagName(&quot;script&quot;),e=t.length;e--;)if(t[e].getAttribute(&quot;cf-hash&quot;))return t[e]}();if(t&amp;&amp;t.previousSibling){var e,r,n,i,c=t.previousSibling,a=c.getAttribute(&quot;data-cfemail&quot;);if(a){for(e=&quot;&quot;,r=parseInt(a.substr(0,2),16),n=2;a.length-n;n+=2)i=parseInt(a.substr(n,2),16)^r,e+=String.fromCharCode(i);e=document.createTextNode(e),c.parentNode.replaceChild(e,c)}}}catch(u){}}();/* ]]&gt; */&lt;/script&gt;\nFormat settings, CABAC                   : Yes\nFormat settings, ReFrames                : 5 frames\nCodec ID                                 : avc1\nCodec ID/Info                            : Advanced Video Coding\nDuration                                 : 2h 49mn\nSource duration                          : 2h 49mn\nBit rate                                 : 2 478 Kbps\nMaximum bit rate                         : 21.8 Mbps\nWidth                                    : 1 280 pixels\nHeight                                   : 544 pixels\nDisplay aspect ratio                     : 2.35:1\nOriginal display aspect ratio            : 2.35:1\nFrame rate mode                          : Variable\nFrame rate                               : 23.976 fps\nMinimum frame rate                       : 19.048 fps\nMaximum frame rate                       : 24.390 fps\nColor space                              : YUV\nChroma subsampling                       : 4:2:0\nBit depth                                : 8 bits\nScan type                                : Progressive\nBits/(Pixel*Frame)                       : 0.148\nStream size                              : 2.90 GiB (86%)\nSource stream size                       : 2.90 GiB (86%)\nWriting library                          : x264 core 112\n\nAudio\nID                                       : 2\nFormat                                   : AAC\nFormat/Info                              : Advanced Audio Codec\nFormat profile                           : LC\nCodec ID                                 : 40\nDuration                                 : 2h 49mn\nBit rate mode                            : Variable\nBit rate                                 : 384 Kbps\nMaximum bit rate                         : 482 Kbps\nChannel(s)                               : 6 channels\nChannel positions                        : Front: L C R, Side: L R, LFE\nSampling rate                            : 48.0 KHz\nCompression mode                         : Lossy\nDelay relative to video                  : 105ms\nStream size                              : 465 MiB (14%)\nLanguage                                 : English\n\nEnjoy...\n\nRequested by\n\nComing up: Apollo 13, Evita, Heat, Jay and Silent Bob Strike Back, Donnie Brasco and more...","torrent":{"xt":"urn:btih:986adb27058dd0889a744850935cbfccb60cb3f3","amp;dn":"The+Horse+Whisperer-720p+MP4+AAC+x264+BRRip+1998-CC","amp;tr":["udp%3A%2F%2Ftracker.openbittorrent.com%3A80","udp%3A%2F%2Fopen.demonii.com%3A1337","udp%3A%2F%2Ftracker.coppersurfer.tk%3A6969","udp%3A%2F%2Fexodus.desync.com%3A6969"],"infoHash":"986adb27058dd0889a744850935cbfccb60cb3f3","infoHashBuffer":{"type":"Buffer","data":[152,106,219,39,5,141,208,136,154,116,72,80,147,92,191,204,182,12,179,243]},"announce":[],"urlList":[]}}